<svg xmlns="http://www.w3.org/2000/svg" width="50" height="50" viewBox="0 0 50 50" fill="none">
    <g id="Layer 2">
        <g id="Layer 1">
            <path id="Vector"
                d="M0 46.1721V14.7045H50V15.06C50 25.2211 49.9978 35.3823 49.9935 45.5434C49.9922 45.9352 49.9413 46.3252 49.8421 46.7041C49.3151 48.734 47.593 49.9953 45.3725 49.9953H12.9054C10.0744 49.9953 7.24201 50.0058 4.41096 49.9953C3.48386 49.9983 2.57957 49.7075 1.82739 49.1645C1.07522 48.6215 0.513684 47.8541 0.223092 46.9721C0.136986 46.7067 0.0730594 46.4375 0 46.1721ZM30.8545 20.7392C30.8624 19.9144 30.377 19.3014 29.7038 19.1498C29.3658 19.0779 29.0133 19.1279 28.7085 19.291C28.4037 19.4541 28.1662 19.7198 28.0378 20.0412C27.5525 21.1444 27.0881 22.2632 26.6145 23.3664C24.2018 29.0173 21.793 34.6686 19.3881 40.3204C19.2279 40.6905 19.1637 41.0951 19.2016 41.4967C19.2825 42.1424 19.8539 42.5908 20.4892 42.6404C21.1598 42.6927 21.7091 42.3241 22.0235 41.5882C24.9041 34.8438 27.7826 28.0989 30.6588 21.3535C30.7359 21.1527 30.8013 20.9476 30.8545 20.7392ZM11.242 30.882C11.4377 30.7213 11.5838 30.5984 11.7325 30.4795C13.4842 29.0687 15.2364 27.6619 16.9889 26.2589C17.7586 25.6368 17.8956 24.7532 17.3425 24.0696C16.7893 23.386 15.9243 23.3468 15.1716 23.9494C12.8232 25.8324 10.4749 27.7194 8.12655 29.6103C7.17547 30.3801 7.17547 31.3813 8.13177 32.1538C10.4662 34.0334 12.8002 35.9099 15.1337 37.7834C15.9165 38.4108 16.7945 38.3676 17.3412 37.6853C17.8878 37.003 17.7508 36.1169 16.9785 35.4973C15.8382 34.5758 14.6941 33.6674 13.5512 32.7433L11.242 30.882ZM38.7593 30.8755C38.5584 31.0415 38.4227 31.1578 38.2844 31.2676C36.5058 32.6976 34.7289 34.1258 32.9537 35.5522C32.2414 36.1286 32.1213 37.0057 32.6445 37.6723C33.1676 38.3389 34.0509 38.4278 34.7736 37.8513C37.1663 35.9421 39.5538 34.0251 41.9361 32.1002C42.8128 31.3918 42.805 30.354 41.9217 29.6416C39.5516 27.729 37.1768 25.8233 34.7971 23.9245C34.0704 23.3429 33.1977 23.4082 32.6641 24.0552C32.1148 24.7258 32.2361 25.6159 32.968 26.2132C33.7626 26.8602 34.5662 27.498 35.3659 28.1411L38.7593 30.8755Z"
                fill="#169b9a"></path>
            <path id="Vector_2"
                d="M0 11.7636V3.82317C0.0318197 3.74993 0.0592653 3.67486 0.0821918 3.59836C0.622309 1.31883 2.27136 0 4.60535 0C18.21 0 31.8152 0 45.4207 0C48.1122 0 49.9935 1.89263 49.9987 4.59565C49.9987 6.81767 49.9987 9.03968 49.9987 11.2617C49.9987 11.4185 49.9857 11.5754 49.9765 11.7623L0 11.7636ZM38.184 8.82271C39.5825 8.82271 40.9798 8.82271 42.377 8.82271C43.3712 8.82271 44.0339 8.23714 44.0404 7.36402C44.047 6.4909 43.3816 5.88181 42.4005 5.88181C39.5886 5.88181 36.7776 5.88181 33.9674 5.88181C32.9889 5.88181 32.3196 6.49221 32.3275 7.36402C32.3353 8.23584 33.0072 8.8214 33.9922 8.82271C35.3894 8.82532 36.7906 8.82271 38.184 8.82271ZM7.41553 8.82271C7.70616 8.82452 7.99077 8.73977 8.23323 8.57921C8.47569 8.41865 8.66506 8.18953 8.7773 7.92094C8.88954 7.65235 8.91958 7.3564 8.86361 7.07067C8.80764 6.78494 8.66818 6.52232 8.46294 6.31614C8.25771 6.10997 7.99595 5.96955 7.7109 5.91271C7.42586 5.85587 7.13038 5.88517 6.86199 5.9969C6.5936 6.10862 6.3644 6.29773 6.20349 6.54022C6.04258 6.7827 5.95722 7.06761 5.95825 7.35879C5.96363 7.74457 6.11881 8.11308 6.39087 8.38613C6.66294 8.65919 7.03048 8.81532 7.41553 8.8214V8.82271ZM13.2746 5.88181C12.9839 5.88208 12.6999 5.96891 12.4586 6.13127C12.2172 6.29362 12.0295 6.52417 11.9192 6.79363C11.809 7.0631 11.7811 7.35932 11.8392 7.64467C11.8973 7.93003 12.0388 8.19164 12.2456 8.39628C12.4525 8.60091 12.7153 8.73935 13.0009 8.794C13.2864 8.84865 13.5817 8.81704 13.8493 8.7032C14.1168 8.58935 14.3446 8.39841 14.5036 8.15461C14.6626 7.91082 14.7457 7.62517 14.7423 7.33396C14.7342 6.94822 14.5764 6.58082 14.3024 6.30972C14.0284 6.03861 13.6597 5.88512 13.2746 5.88181ZM19.1585 5.88181C18.8679 5.87766 18.5825 5.96016 18.3388 6.11882C18.095 6.27748 17.9038 6.50514 17.7895 6.7729C17.6751 7.04065 17.6428 7.33641 17.6966 7.62261C17.7503 7.90881 17.8878 8.17255 18.0915 8.38031C18.2952 8.58807 18.556 8.7305 18.8406 8.78949C19.1253 8.84848 19.421 8.82138 19.6903 8.71163C19.9595 8.60188 20.1901 8.41443 20.3528 8.17309C20.5155 7.93175 20.603 7.64741 20.604 7.35618C20.6014 6.97045 20.4491 6.60087 20.1793 6.32569C19.9095 6.0505 19.5434 5.8913 19.1585 5.88181Z"
                fill="#169b9a"></path>
        </g>
    </g>
</svg>