<svg xmlns="http://www.w3.org/2000/svg" width="50" height="50" viewBox="0 0 50 50" fill="none">
    <path
        d="M33.9514 17.8372V7.17982C34.6954 7.17982 35.4395 7.10691 36.1612 7.19916C37.0183 7.30779 37.5689 8.07116 37.5882 9.00715C37.6051 9.76903 37.6051 10.5309 37.5882 11.2928C37.5702 11.4264 37.5981 11.5622 37.6673 11.6779C37.7365 11.7936 37.8429 11.8824 37.9692 11.9297C38.9379 12.4326 39.8694 13.01 40.8322 13.5293C40.9282 13.5769 41.033 13.6042 41.1401 13.6093C41.2471 13.6144 41.354 13.5973 41.4542 13.5591C42.1818 13.1886 42.8797 12.76 43.597 12.3687C44.5969 11.824 45.5597 12.071 46.14 13.0413C47.3305 15.0342 48.5115 17.0332 49.6831 19.0381C50.2858 20.0693 50.0239 21.0559 49.0031 21.6571C48.3156 22.0633 47.6028 22.4294 46.9272 22.8475C46.8442 22.9137 46.7761 22.9968 46.7274 23.0911C46.6787 23.1855 46.6504 23.2891 46.6445 23.3951C46.6177 24.4531 46.6579 25.5111 46.6192 26.5676C46.6073 26.8846 46.6862 27.0319 46.9466 27.1733C47.6326 27.5423 48.3111 27.9277 48.9837 28.322C50.0134 28.9262 50.2902 29.9098 49.695 30.9336C48.5254 32.9395 47.3449 34.9389 46.1534 36.9319C45.5582 37.9244 44.5925 38.1685 43.5657 37.606C42.8663 37.2221 42.1833 36.8054 41.472 36.4438C41.3738 36.4004 41.2676 36.378 41.1603 36.378C41.0529 36.378 40.9467 36.4004 40.8485 36.4438C39.8694 36.9696 38.9032 37.5202 37.9498 38.0956C37.86 38.1538 37.7833 38.2302 37.7249 38.32C37.6664 38.4097 37.6275 38.5107 37.6105 38.6164C37.5718 39.3768 37.6016 40.1401 37.5912 40.902C37.5748 42.1163 36.8472 42.8365 35.6299 42.8365C35.0913 42.8365 34.5541 42.8365 33.9722 42.8365V32.1657C36.3338 32.06 38.2876 31.1151 39.7117 29.1762C40.7235 27.8194 41.2002 26.1375 41.0509 24.4516C40.795 21.1184 38.1403 17.9905 33.9514 17.8372Z"
        fill="#169b9a"></path>
    <path
        d="M0 25.0126V5.76471C0 2.24845 2.23208 0 5.73644 0H26.4352C29.8741 0 32.1419 2.25589 32.1419 5.68138C32.1419 18.5699 32.1419 31.4574 32.1419 44.3439C32.1419 47.7292 29.8607 49.9985 26.462 49.9985H5.70816C2.27374 49.9985 0 47.7367 0 44.3156C0 37.8863 0 31.4519 0 25.0126ZM1.78566 24.9427C1.78566 31.1171 1.78566 37.2915 1.78566 43.466C1.78566 46.3275 3.67549 48.2129 6.54742 48.2129H25.5692C28.4753 48.2129 30.3562 46.3394 30.3562 43.4407C30.3562 31.1464 30.3562 18.8531 30.3562 6.56082C30.3562 3.65912 28.4783 1.78566 25.5722 1.78566H6.60099C3.65316 1.78566 1.78566 3.64721 1.78566 6.58611C1.78566 12.705 1.78566 18.8238 1.78566 24.9427Z"
        fill="#169b9a"></path>
    <path
        d="M12.443 3.5713C12.8746 5.90903 14.1811 7.16346 16.123 7.14263C18.0128 7.12031 19.3134 5.83612 19.6943 3.59809C19.8163 3.59065 19.9428 3.57428 20.0708 3.57428C21.9859 3.57428 23.901 3.56535 25.8162 3.57428C27.4158 3.58172 28.5542 4.72008 28.578 6.31229C28.578 6.47896 28.578 6.64711 28.578 6.81377V43.3514C28.578 45.393 27.5364 46.4272 25.4814 46.4272H6.62031C4.61293 46.4272 3.57129 45.3751 3.57129 43.3603V6.65455C3.57129 4.61294 4.61292 3.5713 6.66048 3.5713H12.443ZM7.6173 24.9992C7.85241 24.7879 8.03991 24.6153 8.23186 24.4472C10.0919 22.8202 11.9515 21.1933 13.8106 19.5664C14.3448 19.0961 14.4281 18.5917 14.062 18.1661C13.696 17.7405 13.1692 17.7524 12.6439 18.2167C10.3771 20.2008 8.11232 22.1848 5.8495 24.1689C5.17987 24.7641 5.17987 25.2463 5.8495 25.834C8.11332 27.8181 10.3781 29.8022 12.6439 31.7862C13.1737 32.249 13.696 32.2609 14.0635 31.8339C14.4311 31.4068 14.3433 30.9068 13.8076 30.4351C12.8195 29.5616 11.824 28.697 10.8315 27.828L7.6173 24.9992ZM24.5305 24.9992C24.2106 25.2835 23.9621 25.5052 23.7106 25.7254C21.9071 27.3027 20.1045 28.8811 18.303 30.4604C17.8 30.9068 17.7241 31.4023 18.0768 31.8205C18.4295 32.2386 18.9696 32.246 19.4949 31.7848C21.7627 29.8056 24.028 27.8241 26.2908 25.84C26.9634 25.2448 26.9664 24.7552 26.3028 24.1704C25.0369 23.0524 23.7641 21.9398 22.4844 20.8327C21.477 19.9518 20.4741 19.0664 19.4622 18.1914C18.9101 17.7152 18.3045 17.7688 17.986 18.303C17.742 18.7137 17.8372 19.1319 18.2836 19.5292C19.5663 20.6591 20.8525 21.785 22.1422 22.907L24.5305 24.9992Z"
        fill="#169b9a"></path>
</svg>