<svg xmlns="http://www.w3.org/2000/svg" width="830" height="481" viewBox="0 0 830 481" fill="none">
    <g opacity="0.2">
        <path
            d="M691.22 327.945C691.173 327.944 691.127 327.933 691.084 327.913C691.042 327.893 691.005 327.864 690.975 327.828L629.31 252.926C629.267 252.871 629.244 252.803 629.244 252.734C629.244 252.664 629.267 252.596 629.31 252.541L689.458 170.543C689.497 170.492 689.55 170.454 689.609 170.431C689.669 170.409 689.734 170.403 689.796 170.414L788.617 194.64C788.686 194.656 788.748 194.694 788.792 194.749C788.836 194.804 788.861 194.872 788.862 194.943L789.818 291.915C789.817 291.979 789.797 292.042 789.759 292.094C789.722 292.146 789.669 292.185 789.608 292.207L691.325 327.922L691.22 327.945ZM629.963 252.716L691.336 327.292L789.142 291.729L788.197 195.223L689.796 171.067L629.963 252.716Z"
            fill="url(#paint0_linear_164_1996)" />
        <path
            d="M687.358 329.739C687.309 329.739 687.259 329.728 687.215 329.706C687.17 329.683 687.131 329.651 687.102 329.611L626.265 250.222C626.22 250.168 626.196 250.1 626.196 250.03C626.196 249.96 626.22 249.892 626.265 249.838L691.161 167.571C691.201 167.521 691.254 167.485 691.314 167.466C691.375 167.448 691.439 167.447 691.5 167.466L792.443 195.968C792.512 195.985 792.573 196.026 792.614 196.084C792.654 196.141 792.673 196.212 792.665 196.283L790.169 296.226C790.164 296.291 790.14 296.353 790.101 296.404C790.061 296.456 790.008 296.495 789.947 296.518L687.452 329.774L687.358 329.739ZM626.918 250.036L687.463 329.051L789.539 295.923L792.035 196.446L691.523 168.072L626.918 250.036Z"
            fill="url(#paint1_linear_164_1996)" />
        <path
            d="M683.299 331.44C683.25 331.439 683.201 331.427 683.157 331.404C683.113 331.382 683.074 331.351 683.043 331.312L623.221 247.332C623.178 247.277 623.155 247.209 623.155 247.14C623.155 247.07 623.178 247.003 623.221 246.948L693.04 164.459C693.079 164.409 693.133 164.373 693.194 164.356C693.255 164.339 693.32 164.343 693.379 164.366L796.352 197.354C796.421 197.375 796.48 197.419 796.521 197.479C796.561 197.538 796.58 197.609 796.574 197.681L790.391 300.561C790.388 300.625 790.366 300.686 790.326 300.737C790.286 300.787 790.231 300.823 790.169 300.84L683.393 331.428L683.299 331.44ZM623.886 247.169L683.381 330.764L789.784 300.293L795.944 197.879L693.402 165.03L623.886 247.169Z"
            fill="url(#paint2_linear_164_1996)" />
        <path
            d="M679.076 333.037C679.024 333.036 678.972 333.023 678.925 332.998C678.879 332.974 678.839 332.939 678.808 332.897L620.199 244.221C620.157 244.166 620.134 244.098 620.134 244.029C620.134 243.959 620.157 243.892 620.199 243.837L695.117 161.36C695.159 161.315 695.213 161.283 695.273 161.266C695.332 161.25 695.395 161.25 695.455 161.267L800.388 199.033C800.454 199.057 800.509 199.102 800.547 199.161C800.585 199.22 800.603 199.289 800.598 199.359L790.519 305.071C790.512 305.135 790.487 305.196 790.445 305.246C790.403 305.296 790.348 305.332 790.286 305.35L679.146 333.037H679.076ZM620.864 244.081L679.193 332.361L789.889 304.791L799.922 199.475L695.443 161.943L620.864 244.081Z"
            fill="url(#paint3_linear_164_1996)" />
        <path
            d="M674.656 334.575C674.6 334.575 674.545 334.562 674.496 334.535C674.447 334.509 674.405 334.47 674.376 334.423L617.213 240.958C617.169 240.904 617.145 240.836 617.145 240.766C617.145 240.696 617.169 240.628 617.213 240.574L697.38 158.249C697.426 158.204 697.483 158.174 697.545 158.162C697.607 158.149 697.672 158.155 697.73 158.179L804.46 200.78C804.523 200.81 804.576 200.859 804.611 200.919C804.647 200.979 804.663 201.049 804.659 201.118L790.461 309.731C790.455 309.796 790.428 309.858 790.383 309.906C790.339 309.954 790.281 309.987 790.216 309.999L674.726 334.528L674.656 334.575ZM617.855 240.83L674.807 333.899L789.866 309.428L803.994 201.363L697.695 158.924L617.855 240.83Z"
            fill="url(#paint4_linear_164_1996)" />
        <path
            d="M670.046 335.974C669.99 335.972 669.934 335.956 669.885 335.928C669.837 335.899 669.796 335.859 669.766 335.81L614.202 237.486C614.162 237.431 614.14 237.363 614.14 237.294C614.14 237.225 614.162 237.158 614.202 237.102L699.747 155.208C699.792 155.163 699.85 155.133 699.913 155.122C699.976 155.112 700.04 155.121 700.097 155.15L808.53 202.925C808.595 202.955 808.647 203.006 808.679 203.069C808.71 203.133 808.72 203.205 808.705 203.275L790.18 314.673C790.167 314.736 790.136 314.794 790.091 314.84C790.045 314.885 789.987 314.916 789.923 314.929L670.093 335.962L670.046 335.974ZM614.879 237.358L670.21 335.298L789.643 314.265L808.099 203.321L700.097 155.779L614.879 237.358Z"
            fill="url(#paint5_linear_164_1996)" />
        <path
            d="M665.24 337.243C665.182 337.241 665.126 337.224 665.077 337.194C665.027 337.163 664.987 337.12 664.96 337.068L611.298 233.745C611.264 233.683 611.253 233.611 611.266 233.541C611.279 233.471 611.314 233.408 611.368 233.361L702.454 152.061C702.5 152.019 702.558 151.991 702.62 151.981C702.682 151.97 702.746 151.978 702.804 152.003L812.8 205.08C812.862 205.113 812.912 205.165 812.943 205.227C812.975 205.29 812.986 205.361 812.975 205.43L789.784 319.543C789.77 319.606 789.736 319.664 789.688 319.708C789.64 319.752 789.58 319.78 789.515 319.788L665.24 337.266V337.243ZM611.939 233.676L665.415 336.532L789.259 319.147L812.264 205.5L702.687 152.621L611.939 233.676Z"
            fill="url(#paint6_linear_164_1996)" />
        <path
            d="M660.294 338.385C660.235 338.385 660.176 338.367 660.126 338.334C660.076 338.301 660.037 338.254 660.014 338.199L608.405 229.83C608.377 229.766 608.37 229.694 608.384 229.625C608.399 229.556 608.435 229.493 608.487 229.446L705.313 148.95C705.364 148.915 705.425 148.897 705.487 148.897C705.55 148.897 705.611 148.915 705.663 148.95L817.082 207.586C817.143 207.619 817.191 207.671 817.221 207.734C817.25 207.796 817.259 207.867 817.245 207.935L789.329 324.682C789.311 324.744 789.275 324.799 789.225 324.841C789.175 324.882 789.114 324.908 789.049 324.915L660.294 338.385ZM609.082 229.76L660.446 337.698L788.618 324.262L816.429 207.982L705.417 149.556L609.082 229.76Z"
            fill="url(#paint7_linear_164_1996)" />
        <path
            d="M655.068 339.375C655.007 339.376 654.946 339.359 654.895 339.326C654.843 339.293 654.802 339.245 654.777 339.189L605.466 225.658C605.44 225.594 605.435 225.524 605.451 225.457C605.468 225.39 605.506 225.33 605.559 225.286L708.217 145.827C708.269 145.792 708.33 145.774 708.392 145.774C708.455 145.774 708.516 145.792 708.567 145.827L821.282 210.219C821.343 210.255 821.391 210.309 821.418 210.374C821.445 210.439 821.451 210.512 821.433 210.58L788.466 329.855C788.448 329.918 788.411 329.973 788.362 330.014C788.312 330.056 788.251 330.082 788.186 330.088L655.127 339.41L655.068 339.375ZM606.189 225.635L655.267 338.735L787.883 329.471L820.722 210.615L708.439 146.421L606.189 225.635Z"
            fill="url(#paint8_linear_164_1996)" />
        <path
            d="M649.689 340.215C649.626 340.216 649.564 340.198 649.511 340.163C649.459 340.127 649.419 340.076 649.397 340.017L602.734 221.278C602.708 221.213 602.704 221.141 602.723 221.073C602.742 221.005 602.783 220.946 602.839 220.905L711.424 142.728C711.476 142.693 711.537 142.675 711.599 142.675C711.661 142.675 711.722 142.693 711.774 142.728L825.55 213.156C825.608 213.193 825.653 213.249 825.676 213.315C825.699 213.38 825.7 213.451 825.678 213.517L787.45 335.204C787.432 335.268 787.394 335.324 787.341 335.364C787.289 335.404 787.224 335.426 787.158 335.426L649.736 340.215H649.689ZM603.411 221.278L649.911 339.586L786.878 334.808L825.002 213.552L711.622 143.369L603.411 221.278Z"
            fill="url(#paint9_linear_164_1996)" />
        <path
            d="M785.887 340.891H644.125C644.06 340.89 643.995 340.87 643.941 340.833C643.887 340.795 643.846 340.742 643.822 340.681L600.017 216.663C599.998 216.597 600 216.526 600.023 216.462C600.046 216.397 600.089 216.341 600.146 216.302L714.831 139.605C714.883 139.57 714.944 139.552 715.006 139.552C715.069 139.552 715.13 139.57 715.181 139.605L829.867 216.255C829.925 216.293 829.968 216.35 829.989 216.415C830.01 216.481 830.009 216.552 829.984 216.616L786.179 340.634C786.166 340.703 786.13 340.766 786.078 340.813C786.025 340.859 785.958 340.887 785.887 340.891ZM644.347 340.261H785.666L829.307 216.745L714.983 140.362L600.659 216.745L644.347 340.261Z"
            fill="url(#paint10_linear_164_1996)" />
        <path
            d="M487.417 394.037C487.336 394.036 487.255 394.017 487.181 393.982C487.107 393.947 487.042 393.896 486.989 393.833L379.22 262.93C379.146 262.834 379.105 262.716 379.105 262.594C379.105 262.472 379.146 262.354 379.22 262.258L484.339 118.953C484.408 118.865 484.499 118.798 484.603 118.758C484.707 118.719 484.82 118.709 484.93 118.729L657.634 161.067C657.754 161.094 657.862 161.161 657.94 161.257C658.017 161.353 658.06 161.473 658.062 161.596L659.734 331.07C659.732 331.182 659.696 331.291 659.63 331.382C659.564 331.473 659.472 331.542 659.367 331.579L487.601 393.996L487.417 394.037ZM380.362 262.563L487.621 392.897L658.551 330.744L656.9 162.085L484.93 119.869L380.362 262.563Z"
            fill="url(#paint11_linear_164_1996)" />
        <path
            d="M480.67 397.173C480.583 397.174 480.496 397.154 480.418 397.115C480.34 397.076 480.273 397.019 480.221 396.949L373.9 258.205C373.822 258.11 373.779 257.992 373.779 257.869C373.779 257.747 373.822 257.628 373.9 257.533L487.316 113.759C487.385 113.673 487.478 113.61 487.583 113.577C487.689 113.544 487.802 113.544 487.907 113.576L664.322 163.388C664.442 163.417 664.548 163.489 664.619 163.59C664.69 163.691 664.722 163.815 664.709 163.938L660.346 338.604C660.337 338.717 660.296 338.826 660.227 338.916C660.159 339.006 660.065 339.075 659.959 339.114L480.833 397.234L480.67 397.173ZM375.041 257.879L480.853 395.971L659.245 338.075L663.608 164.223L487.948 114.635L375.041 257.879Z"
            fill="url(#paint12_linear_164_1996)" />
        <path
            d="M473.574 400.146C473.487 400.144 473.402 400.123 473.325 400.084C473.247 400.045 473.179 399.99 473.125 399.922L368.578 253.155C368.503 253.059 368.463 252.94 368.463 252.819C368.463 252.697 368.503 252.579 368.578 252.483L490.598 108.322C490.665 108.235 490.759 108.171 490.866 108.142C490.973 108.112 491.086 108.119 491.189 108.159L671.151 165.811C671.271 165.848 671.374 165.924 671.445 166.028C671.515 166.132 671.548 166.257 671.538 166.381L660.733 346.18C660.728 346.292 660.688 346.399 660.618 346.487C660.549 346.575 660.453 346.639 660.345 346.669L473.737 400.126L473.574 400.146ZM369.74 252.87L473.717 398.965L659.672 345.712L670.437 166.728L491.23 109.32L369.74 252.87Z"
            fill="url(#paint13_linear_164_1996)" />
        <path
            d="M466.195 402.936C466.103 402.934 466.013 402.911 465.931 402.869C465.85 402.827 465.78 402.766 465.726 402.692L363.298 247.717C363.224 247.621 363.184 247.503 363.184 247.381C363.184 247.26 363.224 247.142 363.298 247.045L494.228 102.905C494.302 102.826 494.396 102.77 494.501 102.741C494.605 102.712 494.715 102.713 494.819 102.742L678.206 168.744C678.32 168.787 678.417 168.866 678.483 168.968C678.549 169.071 678.581 169.192 678.573 169.314L660.958 354.061C660.946 354.174 660.901 354.28 660.829 354.367C660.756 354.454 660.659 354.518 660.55 354.55L466.317 402.936H466.195ZM364.46 247.473L466.399 401.755L659.857 353.572L677.39 169.517L494.799 103.923L364.46 247.473Z"
            fill="url(#paint14_linear_164_1996)" />
        <path
            d="M458.468 405.624C458.371 405.626 458.275 405.602 458.189 405.556C458.103 405.509 458.031 405.442 457.979 405.36L358.079 242.016C358.002 241.921 357.959 241.802 357.959 241.68C357.959 241.557 358.002 241.438 358.079 241.344L498.183 97.4681C498.262 97.3907 498.362 97.3379 498.471 97.3163C498.58 97.2946 498.692 97.3049 498.795 97.346L685.321 171.799C685.431 171.851 685.524 171.936 685.585 172.041C685.647 172.146 685.676 172.268 685.668 172.389L660.856 362.207C660.845 362.321 660.797 362.428 660.72 362.513C660.643 362.597 660.54 362.654 660.428 362.676L458.59 405.543L458.468 405.624ZM359.201 241.792L458.733 404.443L659.816 361.678L684.506 172.817L498.734 98.6493L359.201 241.792Z"
            fill="url(#paint15_linear_164_1996)" />
        <path
            d="M450.414 408.068C450.315 408.065 450.219 408.038 450.133 407.988C450.048 407.938 449.976 407.868 449.925 407.783L352.819 235.947C352.747 235.849 352.709 235.732 352.709 235.611C352.709 235.49 352.747 235.372 352.819 235.275L502.321 92.1529C502.4 92.0739 502.501 92.0216 502.61 92.0033C502.72 91.985 502.833 92.0017 502.933 92.051L692.436 175.546C692.548 175.598 692.64 175.687 692.695 175.798C692.751 175.909 692.767 176.035 692.742 176.157L660.366 370.842C660.344 370.952 660.29 371.054 660.21 371.134C660.13 371.213 660.028 371.268 659.918 371.29L450.496 408.048L450.414 408.068ZM354.001 235.723L450.7 406.887L659.428 370.129L691.681 176.238L502.933 93.1507L354.001 235.723Z"
            fill="url(#paint16_linear_164_1996)" />
        <path
            d="M442.014 410.288C441.913 410.285 441.814 410.255 441.728 410.201C441.642 410.147 441.572 410.072 441.525 409.982L347.742 229.41C347.683 229.3 347.663 229.174 347.686 229.052C347.708 228.93 347.771 228.819 347.864 228.738L507.051 86.6542C507.132 86.5802 507.233 86.5312 507.341 86.5131C507.45 86.4951 507.561 86.5087 507.662 86.5524L699.897 179.313C700.005 179.371 700.093 179.46 700.148 179.57C700.202 179.679 700.222 179.803 700.203 179.924L659.672 379.354C659.648 379.465 659.59 379.565 659.506 379.642C659.422 379.719 659.316 379.767 659.204 379.781L442.014 410.328V410.288ZM348.863 229.287L442.32 409.045L658.755 378.661L698.959 180.046L507.458 87.6317L348.863 229.287Z"
            fill="url(#paint17_linear_164_1996)" />
        <path
            d="M433.37 412.284C433.266 412.284 433.163 412.253 433.076 412.195C432.989 412.137 432.921 412.054 432.881 411.958L342.686 222.567C342.637 222.455 342.624 222.329 342.65 222.209C342.675 222.088 342.738 221.979 342.829 221.895L512.046 81.2172C512.137 81.1568 512.243 81.1245 512.352 81.1245C512.461 81.1245 512.567 81.1568 512.658 81.2172L707.38 183.692C707.487 183.75 707.572 183.841 707.623 183.95C707.674 184.06 707.689 184.184 707.666 184.303L658.878 388.335C658.846 388.444 658.783 388.54 658.695 388.613C658.608 388.686 658.501 388.731 658.389 388.742L433.37 412.284ZM343.869 222.445L433.635 411.082L657.634 387.602L706.238 184.384L512.23 82.2762L343.869 222.445Z"
            fill="url(#paint18_linear_164_1996)" />
        <path
            d="M424.237 414.014C424.129 414.016 424.024 413.985 423.933 413.928C423.843 413.87 423.771 413.787 423.727 413.688L337.549 215.277C337.503 215.165 337.495 215.041 337.524 214.924C337.553 214.807 337.619 214.702 337.712 214.625L517.123 75.7592C517.213 75.6988 517.32 75.6665 517.429 75.6665C517.538 75.6665 517.644 75.6988 517.735 75.7592L714.72 188.294C714.827 188.356 714.91 188.451 714.958 188.565C715.006 188.679 715.015 188.805 714.985 188.925L657.369 397.376C657.338 397.485 657.274 397.582 657.187 397.655C657.1 397.727 656.993 397.772 656.88 397.784L424.339 414.075L424.237 414.014ZM338.813 215.236L424.583 412.894L656.35 396.704L713.741 188.986L517.51 76.7978L338.813 215.236Z"
            fill="url(#paint19_linear_164_1996)" />
        <path
            d="M414.838 415.48C414.727 415.483 414.619 415.451 414.527 415.389C414.436 415.327 414.366 415.238 414.328 415.134L332.777 207.62C332.731 207.506 332.724 207.38 332.757 207.262C332.79 207.144 332.862 207.041 332.961 206.968L522.729 70.3422C522.82 70.2818 522.926 70.2495 523.035 70.2495C523.144 70.2495 523.25 70.2818 523.341 70.3422L722.181 193.425C722.283 193.491 722.36 193.589 722.401 193.703C722.441 193.817 722.443 193.942 722.406 194.057L655.595 406.724C655.564 406.835 655.498 406.933 655.406 407.003C655.314 407.073 655.201 407.11 655.086 407.111L414.919 415.48H414.838ZM333.96 207.62L415.225 414.381L654.596 406.031L721.223 194.118L523.076 71.4623L333.96 207.62Z"
            fill="url(#paint20_linear_164_1996)" />
        <path
            d="M652.863 416.662H405.113C404.998 416.661 404.886 416.626 404.791 416.56C404.697 416.495 404.624 416.403 404.583 416.295L328.027 199.555C327.993 199.44 327.996 199.317 328.037 199.203C328.077 199.09 328.152 198.992 328.252 198.924L528.682 64.8847C528.773 64.8242 528.879 64.792 528.988 64.792C529.097 64.792 529.203 64.8242 529.294 64.8847L729.725 198.843C729.826 198.909 729.901 199.008 729.938 199.122C729.975 199.237 729.972 199.361 729.929 199.474L653.373 416.214C653.35 416.335 653.288 416.444 653.196 416.526C653.103 416.607 652.986 416.655 652.863 416.662ZM405.5 415.562H652.476L728.746 199.698L528.947 66.2083L329.149 199.698L405.5 415.562Z"
            fill="url(#paint21_linear_164_1996)" />
        <path
            d="M217.727 449.682C217.615 449.68 217.505 449.655 217.404 449.607C217.304 449.559 217.214 449.489 217.142 449.404L69.9516 270.616C69.85 270.485 69.7949 270.324 69.7949 270.157C69.7949 269.991 69.85 269.83 69.9516 269.699L213.523 73.9723C213.616 73.8527 213.741 73.761 213.884 73.7071C214.026 73.6532 214.18 73.6391 214.33 73.6664L450.208 131.491C450.373 131.529 450.52 131.621 450.626 131.752C450.732 131.883 450.791 132.046 450.793 132.215L453.077 363.682C453.074 363.835 453.024 363.983 452.935 364.108C452.845 364.232 452.72 364.326 452.575 364.377L217.978 449.626L217.727 449.682ZM71.511 270.116L218.006 448.125L451.462 363.237L449.206 132.882L214.33 75.224L71.511 270.116Z"
            fill="url(#paint22_linear_164_1996)" />
        <path
            d="M208.51 453.965C208.391 453.966 208.274 453.939 208.167 453.886C208.061 453.833 207.968 453.755 207.898 453.659L62.684 264.163C62.5777 264.034 62.5195 263.872 62.5195 263.705C62.5195 263.537 62.5777 263.375 62.684 263.246L217.588 66.8797C217.682 66.7619 217.809 66.6751 217.953 66.6304C218.097 66.5858 218.251 66.5854 218.395 66.6294L459.342 134.662C459.506 134.702 459.651 134.8 459.748 134.938C459.845 135.076 459.889 135.245 459.871 135.413L453.912 373.973C453.9 374.127 453.844 374.275 453.75 374.398C453.656 374.521 453.529 374.615 453.383 374.668L208.733 454.049L208.51 453.965ZM64.2434 263.718L208.761 452.324L452.408 373.249L458.367 135.802L218.451 68.0757L64.2434 263.718Z"
            fill="url(#paint23_linear_164_1996)" />
        <path
            d="M198.82 458.027C198.702 458.024 198.586 457.995 198.48 457.942C198.374 457.889 198.281 457.813 198.208 457.721L55.4165 257.266C55.3149 257.135 55.2598 256.973 55.2598 256.807C55.2598 256.641 55.3149 256.48 55.4165 256.348L222.071 59.4538C222.163 59.3342 222.292 59.2478 222.438 59.2076C222.583 59.1675 222.738 59.1758 222.879 59.2313L468.67 137.972C468.834 138.023 468.976 138.127 469.072 138.269C469.168 138.41 469.213 138.581 469.199 138.751L454.441 384.32C454.435 384.473 454.38 384.62 454.285 384.74C454.19 384.859 454.06 384.946 453.912 384.987L199.043 457.999L198.82 458.027ZM57.0037 256.877L199.015 456.413L452.993 383.68L467.696 139.224L222.935 60.8167L57.0037 256.877Z"
            fill="url(#paint24_linear_164_1996)" />
        <path
            d="M188.74 461.837C188.615 461.834 188.492 461.803 188.381 461.745C188.269 461.687 188.173 461.604 188.1 461.503L48.2045 249.839C48.1029 249.708 48.0479 249.546 48.0479 249.38C48.0479 249.214 48.1029 249.053 48.2045 248.921L227.028 52.0549C227.129 51.9476 227.258 51.87 227.4 51.8308C227.543 51.7916 227.693 51.7921 227.835 51.8323L478.305 141.977C478.461 142.036 478.594 142.144 478.684 142.284C478.774 142.424 478.817 142.59 478.806 142.756L454.747 395.083C454.732 395.237 454.67 395.383 454.571 395.502C454.472 395.621 454.339 395.707 454.191 395.751L188.907 461.837H188.74ZM49.7918 249.505L189.019 460.223L453.244 394.416L477.191 143.034L227.807 53.4456L49.7918 249.505Z"
            fill="url(#paint25_linear_164_1996)" />
        <path
            d="M178.187 465.508C178.054 465.51 177.923 465.478 177.806 465.414C177.689 465.351 177.59 465.259 177.519 465.147L41.0766 242.052C40.9703 241.922 40.9121 241.76 40.9121 241.593C40.9121 241.425 40.9703 241.263 41.0766 241.134L232.43 44.6288C232.538 44.5231 232.675 44.451 232.823 44.4214C232.971 44.3917 233.125 44.4058 233.266 44.462L488.023 146.149C488.174 146.221 488.299 146.337 488.384 146.48C488.468 146.624 488.507 146.79 488.497 146.956L454.609 406.209C454.594 406.365 454.528 406.511 454.423 406.626C454.317 406.742 454.178 406.82 454.024 406.849L178.354 465.397L178.187 465.508ZM42.6081 241.746L178.549 463.895L453.189 405.486L486.91 147.54L233.182 46.242L42.6081 241.746Z"
            fill="url(#paint26_linear_164_1996)" />
        <path
            d="M167.188 468.846C167.053 468.842 166.921 468.804 166.804 468.736C166.687 468.668 166.589 468.572 166.52 468.457L33.8919 233.763C33.7946 233.63 33.7422 233.469 33.7422 233.304C33.7422 233.139 33.7946 232.979 33.8919 232.845L238.082 37.3694C238.189 37.2616 238.328 37.1901 238.477 37.1651C238.627 37.1402 238.781 37.163 238.918 37.2303L497.741 151.267C497.894 151.339 498.019 151.46 498.095 151.612C498.171 151.763 498.193 151.936 498.158 152.102L453.94 418.002C453.91 418.153 453.836 418.292 453.727 418.401C453.617 418.51 453.479 418.584 453.327 418.614L167.299 468.818L167.188 468.846ZM35.507 233.457L167.578 467.233L452.659 417.029L496.71 152.213L238.918 38.7323L35.507 233.457Z"
            fill="url(#paint27_linear_164_1996)" />
        <path
            d="M155.715 471.877C155.576 471.873 155.442 471.833 155.324 471.759C155.207 471.686 155.111 471.583 155.047 471.46L26.9577 224.835C26.8779 224.685 26.8509 224.513 26.8813 224.347C26.9116 224.18 26.9974 224.029 27.1248 223.917L244.542 29.8595C244.653 29.7584 244.791 29.6915 244.939 29.6668C245.087 29.6422 245.239 29.6608 245.377 29.7205L507.931 156.413C508.079 156.491 508.198 156.614 508.273 156.763C508.348 156.913 508.375 157.082 508.349 157.247L452.992 429.628C452.959 429.78 452.88 429.917 452.765 430.022C452.65 430.126 452.506 430.193 452.352 430.212L155.715 471.933V471.877ZM28.4892 224.668L156.133 470.181L451.739 428.683L506.651 157.414L245.099 31.1946L28.4892 224.668Z"
            fill="url(#paint28_linear_164_1996)" />
        <path
            d="M143.909 474.603C143.766 474.603 143.627 474.561 143.508 474.482C143.389 474.403 143.296 474.29 143.241 474.158L20.0529 215.489C19.9855 215.335 19.968 215.164 20.0029 214.999C20.0379 214.835 20.1235 214.685 20.2478 214.571L251.365 22.4332C251.488 22.3507 251.634 22.3066 251.782 22.3066C251.931 22.3066 252.076 22.3507 252.2 22.4332L518.152 162.393C518.297 162.472 518.413 162.596 518.483 162.746C518.553 162.896 518.574 163.065 518.541 163.227L451.907 441.894C451.864 442.043 451.777 442.175 451.658 442.274C451.539 442.373 451.393 442.435 451.239 442.45L143.909 474.603ZM21.6678 215.322L144.271 472.962L450.209 440.893L516.592 163.338L251.615 23.8796L21.6678 215.322Z"
            fill="url(#paint29_linear_164_1996)" />
        <path
            d="M131.434 476.967C131.287 476.969 131.143 476.928 131.019 476.849C130.896 476.77 130.798 476.656 130.738 476.522L13.0356 205.532C12.9736 205.379 12.9617 205.211 13.0018 205.051C13.0418 204.891 13.1317 204.748 13.2584 204.642L258.298 14.9791C258.422 14.8966 258.567 14.8525 258.716 14.8525C258.864 14.8525 259.01 14.8966 259.133 14.9791L528.176 168.679C528.321 168.764 528.435 168.894 528.5 169.049C528.566 169.205 528.579 169.377 528.538 169.541L449.846 454.243C449.803 454.392 449.716 454.524 449.597 454.623C449.478 454.722 449.332 454.784 449.178 454.8L131.573 477.051L131.434 476.967ZM14.762 205.476L131.908 475.438L448.454 453.326L526.839 169.624L258.827 16.3976L14.762 205.476Z"
            fill="url(#paint30_linear_164_1996)" />
        <path
            d="M118.597 478.97C118.446 478.974 118.298 478.93 118.173 478.845C118.048 478.76 117.953 478.639 117.901 478.497L6.51903 195.074C6.45542 194.919 6.44557 194.747 6.49098 194.586C6.53639 194.425 6.63453 194.283 6.76971 194.184L265.955 7.58066C266.078 7.49815 266.224 7.4541 266.372 7.4541C266.521 7.4541 266.666 7.49815 266.79 7.58066L538.366 175.688C538.505 175.778 538.611 175.911 538.666 176.067C538.722 176.223 538.724 176.393 538.673 176.55L447.423 467.01C447.381 467.162 447.29 467.296 447.164 467.391C447.038 467.487 446.885 467.538 446.727 467.539L118.708 478.97H118.597ZM8.13411 195.074L119.126 477.468L446.059 466.064L537.057 176.633L266.428 9.11047L8.13411 195.074Z"
            fill="url(#paint31_linear_164_1996)" />
        <path
            d="M443.693 480.583H105.315C105.158 480.582 105.005 480.534 104.876 480.445C104.747 480.356 104.647 480.229 104.591 480.083L0.0319069 184.06C-0.0146411 183.902 -0.0101936 183.734 0.0448234 183.579C0.0998405 183.424 0.202566 183.291 0.338165 183.197L274.086 0.126558C274.21 0.0440444 274.355 0 274.504 0C274.653 0 274.798 0.0440444 274.922 0.126558L548.67 183.086C548.808 183.177 548.91 183.312 548.961 183.468C549.012 183.625 549.007 183.794 548.948 183.948L444.389 479.971C444.358 480.136 444.273 480.286 444.146 480.397C444.02 480.508 443.86 480.574 443.693 480.583ZM105.844 479.081H443.164L547.333 184.254L274.448 1.93444L1.56337 184.254L105.844 479.081Z"
            fill="url(#paint32_linear_164_1996)" />
    </g>
    <defs>
        <linearGradient id="paint0_linear_164_1996" x1="799.18" y1="254.384" x2="629.939" y2="253.653"
            gradientUnits="userSpaceOnUse">
            <stop stop-color="#000" stop-opacity="0.8" />
            <stop offset="1" stop-color="#000" stop-opacity="0.2" />
        </linearGradient>
        <linearGradient id="paint1_linear_164_1996" x1="802.372" y1="253.979" x2="626.916" y2="253.216"
            gradientUnits="userSpaceOnUse">
            <stop stop-color="#000" stop-opacity="0.8" />
            <stop offset="1" stop-color="#000" stop-opacity="0.2" />
        </linearGradient>
        <linearGradient id="paint2_linear_164_1996" x1="806.686" y1="253.416" x2="623.906" y2="252.613"
            gradientUnits="userSpaceOnUse">
            <stop stop-color="#000" stop-opacity="0.8" />
            <stop offset="1" stop-color="#000" stop-opacity="0.2" />
        </linearGradient>
        <linearGradient id="paint3_linear_164_1996" x1="811.121" y1="252.823" x2="620.914" y2="251.977"
            gradientUnits="userSpaceOnUse">
            <stop stop-color="#000" stop-opacity="0.8" />
            <stop offset="1" stop-color="#000" stop-opacity="0.2" />
        </linearGradient>
        <linearGradient id="paint4_linear_164_1996" x1="815.592" y1="252.196" x2="617.956" y2="251.307"
            gradientUnits="userSpaceOnUse">
            <stop stop-color="#000" stop-opacity="0.8" />
            <stop offset="1" stop-color="#000" stop-opacity="0.2" />
        </linearGradient>
        <linearGradient id="paint5_linear_164_1996" x1="820.056" y1="251.524" x2="614.982" y2="250.589"
            gradientUnits="userSpaceOnUse">
            <stop stop-color="#000" stop-opacity="0.8" />
            <stop offset="1" stop-color="#000" stop-opacity="0.2" />
        </linearGradient>
        <linearGradient id="paint6_linear_164_1996" x1="824.74" y1="250.746" x2="612.134" y2="249.766"
            gradientUnits="userSpaceOnUse">
            <stop stop-color="#000" stop-opacity="0.8" />
            <stop offset="1" stop-color="#000" stop-opacity="0.2" />
        </linearGradient>
        <linearGradient id="paint7_linear_164_1996" x1="829.43" y1="249.905" x2="609.281" y2="248.877"
            gradientUnits="userSpaceOnUse">
            <stop stop-color="#000" stop-opacity="0.8" />
            <stop offset="1" stop-color="#000" stop-opacity="0.2" />
        </linearGradient>
        <linearGradient id="paint8_linear_164_1996" x1="834.037" y1="248.993" x2="606.377" y2="247.917"
            gradientUnits="userSpaceOnUse">
            <stop stop-color="#000" stop-opacity="0.8" />
            <stop offset="1" stop-color="#000" stop-opacity="0.2" />
        </linearGradient>
        <linearGradient id="paint9_linear_164_1996" x1="838.694" y1="247.975" x2="603.677" y2="246.851"
            gradientUnits="userSpaceOnUse">
            <stop stop-color="#000" stop-opacity="0.8" />
            <stop offset="1" stop-color="#000" stop-opacity="0.2" />
        </linearGradient>
        <linearGradient id="paint10_linear_164_1996" x1="843.414" y1="246.876" x2="601" y2="245.703"
            gradientUnits="userSpaceOnUse">
            <stop stop-color="#000" stop-opacity="0.8" />
            <stop offset="1" stop-color="#000" stop-opacity="0.2" />
        </linearGradient>
        <linearGradient id="paint11_linear_164_1996" x1="654.174" y1="240.389" x2="392.717" y2="240.077"
            gradientUnits="userSpaceOnUse">
            <stop stop-color="#000" stop-opacity="0.6" />
            <stop offset="1" stop-color="#000" stop-opacity="0.1" />
        </linearGradient>
        <linearGradient id="paint12_linear_164_1996" x1="658.948" y1="238.919" x2="387.89" y2="238.593"
            gradientUnits="userSpaceOnUse">
            <stop stop-color="#000" stop-opacity="0.6" />
            <stop offset="1" stop-color="#000" stop-opacity="0.1" />
        </linearGradient>
        <linearGradient id="paint13_linear_164_1996" x1="665.535" y1="237.176" x2="383.163" y2="236.832"
            gradientUnits="userSpaceOnUse">
            <stop stop-color="#000" stop-opacity="0.6" />
            <stop offset="1" stop-color="#000" stop-opacity="0.1" />
        </linearGradient>
        <linearGradient id="paint14_linear_164_1996" x1="672.326" y1="235.393" x2="378.481" y2="235.031"
            gradientUnits="userSpaceOnUse">
            <stop stop-color="#000" stop-opacity="0.6" />
            <stop offset="1" stop-color="#000" stop-opacity="0.1" />
        </linearGradient>
        <linearGradient id="paint15_linear_164_1996" x1="679.177" y1="233.56" x2="373.854" y2="233.179"
            gradientUnits="userSpaceOnUse">
            <stop stop-color="#000" stop-opacity="0.6" />
            <stop offset="1" stop-color="#000" stop-opacity="0.1" />
        </linearGradient>
        <linearGradient id="paint16_linear_164_1996" x1="686.016" y1="231.677" x2="369.202" y2="231.277"
            gradientUnits="userSpaceOnUse">
            <stop stop-color="#000" stop-opacity="0.6" />
            <stop offset="1" stop-color="#000" stop-opacity="0.1" />
        </linearGradient>
        <linearGradient id="paint17_linear_164_1996" x1="693.226" y1="229.611" x2="364.775" y2="229.192"
            gradientUnits="userSpaceOnUse">
            <stop stop-color="#000" stop-opacity="0.6" />
            <stop offset="1" stop-color="#000" stop-opacity="0.1" />
        </linearGradient>
        <linearGradient id="paint18_linear_164_1996" x1="700.444" y1="227.472" x2="360.342" y2="227.033"
            gradientUnits="userSpaceOnUse">
            <stop stop-color="#000" stop-opacity="0.6" />
            <stop offset="1" stop-color="#000" stop-opacity="0.1" />
        </linearGradient>
        <linearGradient id="paint19_linear_164_1996" x1="707.523" y1="225.218" x2="355.816" y2="224.758"
            gradientUnits="userSpaceOnUse">
            <stop stop-color="#000" stop-opacity="0.6" />
            <stop offset="1" stop-color="#000" stop-opacity="0.1" />
        </linearGradient>
        <linearGradient id="paint20_linear_164_1996" x1="714.712" y1="222.816" x2="351.638" y2="222.336"
            gradientUnits="userSpaceOnUse">
            <stop stop-color="#000" stop-opacity="0.6" />
            <stop offset="1" stop-color="#000" stop-opacity="0.1" />
        </linearGradient>
        <linearGradient id="paint21_linear_164_1996" x1="722" y1="220.293" x2="347.5" y2="219.791"
            gradientUnits="userSpaceOnUse">
            <stop stop-color="#000" stop-opacity="0.6" />
            <stop offset="1" stop-color="#000" stop-opacity="0.1" />
        </linearGradient>
        <linearGradient id="paint22_linear_164_1996" x1="475.423" y1="274.097" x2="68.3986" y2="274.409"
            gradientUnits="userSpaceOnUse">
            <stop stop-color="#000" stop-opacity="0.7" />
            <stop offset="1" stop-color="#000" stop-opacity="0.1" />
        </linearGradient>
        <linearGradient id="paint23_linear_164_1996" x1="483.042" y1="273.13" x2="61.0719" y2="273.456"
            gradientUnits="userSpaceOnUse">
            <stop stop-color="#000" stop-opacity="0.7" />
            <stop offset="1" stop-color="#000" stop-opacity="0.1" />
        </linearGradient>
        <linearGradient id="paint24_linear_164_1996" x1="493.336" y1="271.788" x2="53.7517" y2="272.132"
            gradientUnits="userSpaceOnUse">
            <stop stop-color="#000" stop-opacity="0.7" />
            <stop offset="1" stop-color="#000" stop-opacity="0.1" />
        </linearGradient>
        <linearGradient id="paint25_linear_164_1996" x1="503.922" y1="270.373" x2="46.4785" y2="270.735"
            gradientUnits="userSpaceOnUse">
            <stop stop-color="#000" stop-opacity="0.7" />
            <stop offset="1" stop-color="#000" stop-opacity="0.1" />
        </linearGradient>
        <linearGradient id="paint26_linear_164_1996" x1="514.594" y1="268.877" x2="39.2815" y2="269.257"
            gradientUnits="userSpaceOnUse">
            <stop stop-color="#000" stop-opacity="0.7" />
            <stop offset="1" stop-color="#000" stop-opacity="0.1" />
        </linearGradient>
        <linearGradient id="paint27_linear_164_1996" x1="525.252" y1="267.27" x2="32.0502" y2="267.67"
            gradientUnits="userSpaceOnUse">
            <stop stop-color="#000" stop-opacity="0.7" />
            <stop offset="1" stop-color="#000" stop-opacity="0.1" />
        </linearGradient>
        <linearGradient id="paint28_linear_164_1996" x1="536.431" y1="265.414" x2="25.115" y2="265.833"
            gradientUnits="userSpaceOnUse">
            <stop stop-color="#000" stop-opacity="0.7" />
            <stop offset="1" stop-color="#000" stop-opacity="0.1" />
        </linearGradient>
        <linearGradient id="paint29_linear_164_1996" x1="547.624" y1="263.406" x2="18.169" y2="263.845"
            gradientUnits="userSpaceOnUse">
            <stop stop-color="#000" stop-opacity="0.7" />
            <stop offset="1" stop-color="#000" stop-opacity="0.1" />
        </linearGradient>
        <linearGradient id="paint30_linear_164_1996" x1="558.621" y1="261.23" x2="11.1002" y2="261.69"
            gradientUnits="userSpaceOnUse">
            <stop stop-color="#000" stop-opacity="0.7" />
            <stop offset="1" stop-color="#000" stop-opacity="0.1" />
        </linearGradient>
        <linearGradient id="paint31_linear_164_1996" x1="569.741" y1="258.798" x2="4.52389" y2="259.279"
            gradientUnits="userSpaceOnUse">
            <stop stop-color="#000" stop-opacity="0.7" />
            <stop offset="1" stop-color="#000" stop-opacity="0.1" />
        </linearGradient>
        <linearGradient id="paint32_linear_164_1996" x1="581.004" y1="256.177" x2="-2" y2="256.679"
            gradientUnits="userSpaceOnUse">
            <stop stop-color="#000" stop-opacity="0.7" />
            <stop offset="1" stop-color="#000" stop-opacity="0.1" />
        </linearGradient>
    </defs>
</svg>