<svg xmlns="http://www.w3.org/2000/svg" width="50" height="50" viewBox="0 0 50 50" fill="none">
    <g id="Asset 3" clip-path="url(#clip0_160_1533)">
        <g id="Layer 2">
            <g id="Layer 1">
                <path id="Vector"
                    d="M20.6201 0H29.208C31.1872 0.459874 32.1932 1.71523 32.5016 3.59191C32.6501 4.48915 32.9175 5.3678 33.1163 6.25819C33.1839 6.56543 33.3386 6.73764 33.6408 6.89615C34.8322 7.51942 36.0052 8.17694 37.1638 8.85306C37.4251 9.00569 37.631 9.04875 37.9107 8.95873C39.058 8.60159 40.2075 8.24739 41.362 7.9108C43.2521 7.35896 44.9476 7.99202 45.9495 9.62603C47.1173 11.5353 48.276 13.4495 49.4254 15.3686C50.4027 17.0026 50.1271 18.7384 48.6909 20.028C47.8099 20.8196 46.9012 21.5837 46.0273 22.3851C45.8668 22.5559 45.7756 22.7759 45.7702 23.0054C45.7487 24.3214 45.7774 25.6384 45.7487 26.9535C45.7364 27.0873 45.7587 27.2219 45.8135 27.3455C45.8684 27.4692 45.9541 27.5782 46.0632 27.6629C46.9387 28.4143 47.8047 29.1736 48.6612 29.9407C50.1405 31.2694 50.4027 33.0003 49.3895 34.6784C48.2586 36.5518 47.1248 38.4233 45.9884 40.2928C44.9271 42.0373 43.2593 42.6567 41.2493 42.054C40.1132 41.7135 38.9843 41.3534 37.842 41.0334C37.6245 40.9919 37.3987 41.0267 37.2058 41.1313C35.9936 41.7888 34.7923 42.4617 33.6019 43.1498C33.3967 43.2646 33.2409 43.4453 33.1624 43.6596C32.8735 44.7633 32.6297 45.8768 32.3684 46.9864C31.9207 48.8934 30.4763 49.999 28.4243 50.002C26.1241 50.002 23.8239 50.002 21.5237 50.002C19.5588 50.002 18.0877 48.863 17.6636 47.0265C17.4044 45.9042 17.1452 44.7809 16.8502 43.6665C16.7741 43.4534 16.6213 43.273 16.4189 43.1577C15.2414 42.4793 14.0534 41.8195 12.8548 41.1783C12.6466 41.0658 12.4032 41.028 12.1685 41.0716C10.9903 41.3886 9.83477 41.7595 8.66588 42.1C6.785 42.6479 5.06189 42.009 4.0774 40.3945C2.9068 38.4722 1.74235 36.5459 0.584049 34.6158C-0.396343 32.9827 -0.0961813 31.2039 1.35853 29.9299C2.2375 29.1599 3.12672 28.4006 3.9852 27.61C4.14803 27.4396 4.24176 27.2193 4.24951 26.9887C4.27307 25.6746 4.24951 24.3596 4.27102 23.0446C4.28182 22.9101 4.25828 22.7751 4.20243 22.6512C4.14658 22.5273 4.06009 22.4182 3.95037 22.3332C3.06013 21.5759 2.18423 20.8029 1.31038 20.027C-0.021397 18.8529 -0.397368 17.1024 0.453945 15.6318C1.6884 13.5027 2.971 11.3941 4.28126 9.30608C5.07316 8.04681 6.75222 7.41864 8.23357 7.7973C9.5428 8.13194 10.8254 8.5605 12.1265 8.91372C12.3744 8.96521 12.6334 8.93051 12.8569 8.81587C14.0463 8.18477 15.208 7.51453 16.3912 6.87853C16.6401 6.74449 16.8123 6.64077 16.8758 6.33256C17.1104 5.2044 17.3972 4.08798 17.6615 2.9657C18.0006 1.52835 18.9072 0.587073 20.365 0.113501C20.452 0.0798726 20.5372 0.0419889 20.6201 0ZM21.747 31.5689C21.747 32.5972 22.3371 33.2254 23.1976 33.3301C24.0417 33.4279 24.7988 32.9269 25.0027 32.0825C26.0865 27.594 27.1622 23.1039 28.2297 18.6122C28.2773 18.4064 28.2794 18.1935 28.2358 17.9869C28.1649 17.632 27.9676 17.3114 27.6775 17.0796C27.3873 16.8478 27.0221 16.7189 26.6438 16.7149C25.8653 16.7149 25.2178 17.2306 25.0242 18.0251C24.1363 21.6421 23.254 25.2604 22.377 28.8801C22.1414 29.8429 21.9232 30.8037 21.7449 31.5689H21.747ZM35.0975 24.9839C34.9162 25.1443 34.7841 25.2666 34.6468 25.384C33.4574 26.4055 32.2598 27.4202 31.0787 28.4515C30.3031 29.1286 30.2345 30.064 30.882 30.744C31.5294 31.424 32.5282 31.4436 33.2976 30.7871C35.0637 29.2868 36.822 27.7747 38.5725 26.251C39.4473 25.4878 39.4309 24.521 38.5571 23.753C37.8687 23.1463 37.1679 22.5544 36.4713 21.9565C35.3823 21.0221 34.2964 20.0838 33.2013 19.1562C32.9763 18.962 32.6991 18.8316 32.4008 18.7796C32.1026 18.7276 31.795 18.756 31.5127 18.8617C31.2304 18.9674 30.9845 19.1462 30.8027 19.378C30.6209 19.6097 30.5104 19.8853 30.4834 20.1738C30.4261 20.752 30.6883 21.2041 31.136 21.5857C32.4432 22.7001 33.7422 23.8215 35.0955 24.9839H35.0975ZM14.957 25.0103C15.0007 24.955 15.0476 24.9021 15.0973 24.8518C16.3 23.8172 17.5024 22.7827 18.7044 21.7481C18.9259 21.5708 19.121 21.3654 19.2842 21.1376C19.4842 20.8212 19.5591 20.447 19.4954 20.0826C19.4317 19.7181 19.2336 19.3874 18.9369 19.1503C18.2915 18.6405 17.4197 18.6562 16.7467 19.2296C14.9662 20.7455 13.1932 22.2696 11.4278 23.8019C10.6215 24.5025 10.6154 25.4887 11.4052 26.1971C12.0885 26.8097 12.7944 27.3967 13.49 27.9975C14.5913 28.9446 15.6813 29.9045 16.7979 30.835C17.5294 31.4456 18.522 31.3927 19.1377 30.7577C19.7708 30.1051 19.734 29.1922 19.0425 28.5259C18.8734 28.3654 18.6911 28.2176 18.5139 28.065L14.957 25.0103Z"
                    fill="#169b9a"></path>
            </g>
        </g>
    </g>
    <defs>
        <clipPath id="clip0_160_1533">
            <rect width="50" height="50" fill="white"></rect>
        </clipPath>
    </defs>
</svg>