<svg xmlns="http://www.w3.org/2000/svg" width="50" height="50" viewBox="0 0 50 50" fill="none">
  <g id="Asset 4" clip-path="url(#clip0_160_1555)">
    <g id="Layer 2">
      <g id="Layer 1">
        <path id="Vector"
          d="M16.2299 0H18.1857C18.2723 0.0373243 18.3622 0.066586 18.4543 0.0874149C20.2233 0.315287 21.8843 1.0657 23.225 2.24278C23.4077 2.40889 23.5201 2.63848 23.5393 2.88469C23.5549 17.6304 23.5549 32.3766 23.5393 47.1231C23.5264 47.3545 23.4262 47.5723 23.2589 47.7324C18.0305 52.2754 9.82929 49.6503 8.21513 42.905C7.99478 41.9826 7.96349 41.0158 7.84223 40.0464C4.45222 39.3758 1.94101 37.4853 0.671059 34.1896C-0.598889 30.894 -0.000422771 27.8045 2.08574 25.002C-0.0134613 22.1538 -0.60932 19.0721 0.68149 15.7738C1.9723 12.4755 4.49264 10.6111 7.93871 9.93398C7.93871 9.75915 7.93871 9.61433 7.93871 9.46951C7.89582 7.34363 8.58377 5.26748 9.88747 3.58839C11.1912 1.9093 13.0316 0.729122 15.1008 0.245283C15.4737 0.155259 15.8531 0.0808914 16.2299 0Z"
          fill="#169b9a"></path>
        <path id="Vector_2"
          d="M49.9996 31.8347C49.9136 32.2261 49.8445 32.6253 49.7388 33.0089C48.7097 36.749 46.3049 39.0631 42.5246 39.9512C42.3864 39.9825 42.2482 40.0217 42.0839 40.0634C42.1536 41.2887 41.9917 42.5161 41.6067 43.6813C39.5101 49.9074 31.7314 52.0419 26.7859 47.7363C26.6222 47.5953 26.5175 47.3979 26.4925 47.1832C26.4756 43.6031 26.4808 40.0217 26.4821 36.4416C26.4821 36.3946 26.4925 36.3463 26.5069 36.2276C27.5004 36.2276 28.5018 36.2172 29.5057 36.2445C29.6126 36.2445 29.7456 36.4637 29.8134 36.6073C30.1368 37.3046 30.6374 37.9049 31.2651 38.3482C31.8928 38.7914 32.6257 39.0622 33.3907 39.1335C34.1557 39.2048 34.9259 39.074 35.6246 38.7543C36.3233 38.4346 36.926 37.9371 37.3725 37.3115C37.819 36.6859 38.0938 35.9541 38.1693 35.189C38.2448 34.4239 38.1185 33.6524 37.8029 32.9515C37.4874 32.2506 36.9936 31.6447 36.371 31.1944C35.7483 30.7441 35.0185 30.465 34.2543 30.3851C33.3665 30.2915 32.4713 30.4737 31.6905 30.9069C30.9097 31.3402 30.2812 32.0035 29.8904 32.8067C29.7104 33.1837 29.5227 33.3285 29.1002 33.3077C28.2566 33.2685 27.4052 33.2959 26.5238 33.2959V26.5011H33.5581C33.6115 26.6093 33.6793 26.7516 33.7471 26.8925C34.0666 27.5624 34.5506 28.1403 35.1537 28.5724C35.7569 29.0045 36.4597 29.2766 37.1964 29.3633C37.9331 29.45 38.6798 29.3484 39.3667 29.0682C40.0536 28.7879 40.6583 28.338 41.1244 27.7606C41.5905 27.1831 41.9027 26.4969 42.032 25.766C42.1613 25.035 42.1034 24.2832 41.8636 23.5808C41.6239 22.8783 41.2102 22.2481 40.6612 21.749C40.1121 21.2498 39.4456 20.898 38.7239 20.7265C37.752 20.4902 36.7284 20.5966 35.8258 21.0277C34.9232 21.4589 34.1969 22.1884 33.7693 23.0932C33.6011 23.4494 33.4173 23.5459 33.0457 23.542C30.9152 23.5237 28.7847 23.5316 26.6568 23.5303C26.6129 23.5262 26.5694 23.5192 26.5264 23.5094V16.7249H29.6557C29.7261 16.8685 29.8069 17.0407 29.893 17.2103C30.2249 17.8702 30.7179 18.4357 31.3263 18.8543C31.9346 19.2729 32.6387 19.5312 33.3733 19.6053C34.1079 19.6793 34.8493 19.5667 35.5289 19.2778C36.2085 18.989 36.8042 18.5333 37.261 17.9528C37.7178 17.3724 38.0209 16.686 38.1422 15.9572C38.2635 15.2285 38.1991 14.4809 37.955 13.7836C37.7108 13.0864 37.2949 12.462 36.7455 11.9684C36.1962 11.4747 35.5313 11.1277 34.8124 10.9595C33.8557 10.7272 32.8485 10.8272 31.9561 11.243C31.0637 11.6589 30.3389 12.3658 29.9008 13.2479C29.7 13.6589 29.4862 13.805 29.0324 13.7828C28.2071 13.7398 27.3778 13.7698 26.4769 13.7698V13.2349C26.4769 9.81786 26.4769 6.39955 26.4691 2.98254C26.459 2.83224 26.4868 2.68182 26.5499 2.54505C26.613 2.40829 26.7094 2.28955 26.8302 2.19972C28.1788 1.05751 29.8254 0.324645 31.5762 0.0874149C31.6686 0.0663916 31.7589 0.0371366 31.8461 0L33.8019 0C33.8891 0.0361973 33.9789 0.0658523 34.0705 0.0887196C37.956 0.752812 40.5376 2.95906 41.7058 6.71659C42.0227 7.73687 42.0553 8.84586 42.2274 9.97051C42.2482 9.97051 42.3721 10.011 42.496 10.0384C46.3188 10.9151 48.7297 13.2584 49.7571 17.0355C49.8588 17.4073 49.9227 17.7883 50.0035 18.1653V20.0206C49.9214 20.4303 49.8458 20.8426 49.7545 21.2509C49.4326 22.6212 48.809 23.9023 47.9291 25.0007C48.728 25.9969 49.3162 27.1452 49.658 28.3759C49.7884 28.8743 49.8888 29.3818 50.0035 29.8841L49.9996 31.8347Z"
          fill="#169b9a"></path>
        <path id="Vector_3"
          d="M33.8005 16.7002C33.5107 16.701 33.2271 16.6155 32.9858 16.4548C32.7445 16.294 32.5564 16.0651 32.4453 15.7971C32.3343 15.5292 32.3053 15.2342 32.362 14.9498C32.4188 14.6653 32.5587 14.4041 32.7641 14.1994C32.9694 13.9946 33.2309 13.8555 33.5154 13.7998C33.7999 13.744 34.0945 13.7741 34.3619 13.8862C34.6293 13.9982 34.8574 14.1873 35.0172 14.4293C35.177 14.6713 35.2614 14.9554 35.2595 15.2455C35.2528 15.6301 35.0968 15.997 34.8245 16.2685C34.5521 16.54 34.1849 16.6948 33.8005 16.7002Z"
          fill="#169b9a"></path>
        <path id="Vector_4"
          d="M39.1651 24.9941C39.1666 25.2842 39.082 25.5682 38.922 25.8101C38.7619 26.052 38.5337 26.2408 38.2662 26.3526C37.9987 26.4645 37.7041 26.4943 37.4197 26.4383C37.1352 26.3823 36.8738 26.2429 36.6687 26.038C36.4635 25.8331 36.3238 25.5718 36.2673 25.2872C36.2108 25.0027 36.2401 24.7078 36.3514 24.44C36.4627 24.1721 36.651 23.9434 36.8924 23.7828C37.1338 23.6222 37.4175 23.5371 37.7074 23.5381C38.0918 23.5438 38.4588 23.699 38.7309 23.9707C39.003 24.2425 39.1587 24.6095 39.1651 24.9941Z"
          fill="#169b9a"></path>
        <path id="Vector_5"
          d="M35.26 34.7846C35.2564 35.0742 35.1668 35.3562 35.0028 35.5948C34.8388 35.8335 34.6077 36.018 34.3387 36.1251C34.0697 36.2321 33.7751 36.2568 33.492 36.1961C33.209 36.1354 32.9504 35.9919 32.749 35.7839C32.5475 35.5759 32.4123 35.3128 32.3605 35.0278C32.3087 34.7428 32.3426 34.4489 32.458 34.1832C32.5733 33.9176 32.7649 33.6922 33.0084 33.5356C33.2519 33.379 33.5364 33.2983 33.8258 33.3037C34.2106 33.3146 34.576 33.4755 34.844 33.7522C35.1119 34.0288 35.2612 34.3993 35.26 34.7846Z"
          fill="#169b9a"></path>
      </g>
    </g>
  </g>
  <defs>
    <clipPath id="clip0_160_1555">
      <rect width="50" height="50" fill="white"></rect>
    </clipPath>
  </defs>
</svg>